# xmcd
#
# Track frame offsets: 
#        205
#        34594
#        60672
#        92089
#        120626
#        145312
#        170342
#        195883
#        211177
#
# Disc length: 2998 seconds
#
# Revision: 2
# Processed by: cddbd v1.5.2PL0 Copyright (c) Steve Scherf et al.
# Submitted via: ExactAudioCopy v0.99pb5
#
DISCID=720bb409
DTITLE=Rolf Kühn - Inside Out
DYEAR=1999
DGENRE=Contenporary Jazz
TTITLE0=Working Inside
TTITLE1=Roulette
TTITLE2=I Got It Bad And That Ain't Good
TTITLE3=Second Visit
TTITLE4=Go From Here
TTITLE5=Seeing Salinas Again
TTITLE6=Kary's Trance
TTITLE7=Leeaison
TTITLE8=4 Orhette
EXTD=YEAR: 1999
EXTT0=
EXTT1=
EXTT2=
EXTT3=
EXTT4=
EXTT5=
EXTT6=
EXTT7=
EXTT8=
PLAYORDER=
